<svg width="20" height="20" xmlns="http://www.w3.org/2000/svg">

 <g>
  <title>background</title>
  <rect fill="none" id="canvas_background" height="22" width="22" y="-1" x="-1"/>
 </g>
 <g>
  <title>Layer 1</title>
  <path id="svg_1" d="m7.960729,10.94101c0,0 -4.862845,0 -4.862845,0c-0.605404,0 -1.097947,0.492667 -1.097947,1.098102c0,0 0,4.862791 0,4.862791c0,0.605356 0.492543,1.098024 1.097947,1.098024c0,0 4.862845,0 4.862845,0c0.605403,0 1.098052,-0.492668 1.098052,-1.098024c0,0 0,-4.862791 0,-4.862791c0,-0.605434 -0.492648,-1.098102 -1.098052,-1.098102zm-0.15688,1.254973c0,0 0,4.549047 0,4.549047c0,0 -4.549086,0 -4.549086,0c0,0 0,-4.549047 0,-4.549047c0,0 4.549086,0 4.549086,0zm0.15688,-10.196041c0,0 -4.862845,0 -4.862845,0c-0.605404,0 -1.097947,0.49259 -1.097947,1.098024c0,0 0,4.862713 0,4.862713c0,0.605434 0.492543,1.098024 1.097947,1.098024c0,0 4.862845,0 4.862845,0c0.605403,0 1.098052,-0.49259 1.098052,-1.098024c0,0 0,-4.862713 0,-4.862713c0,-0.605434 -0.492648,-1.098024 -1.098052,-1.098024zm-0.15688,1.254896c0,0 0,4.548969 0,4.548969c0,0 -4.549086,0 -4.549086,0c0,0 0,-4.548969 0,-4.548969c0,0 4.549086,0 4.549086,0zm9.097964,-1.254896c0,0 -4.862637,0 -4.862637,0c-0.605509,0 -1.098052,0.49259 -1.098052,1.098024c0,0 0,4.862713 0,4.862713c0,0.605434 0.492543,1.098024 1.098052,1.098024c0,0 4.862637,0 4.862637,0c0.605404,0 1.098051,-0.49259 1.098051,-1.098024c0,0 0,-4.862713 0,-4.862713c0,-0.605434 -0.492647,-1.098024 -1.098051,-1.098024zm-0.156879,1.254896c0,0 0,4.548969 0,4.548969c0,0 -4.548983,0 -4.548983,0c0,0 0,-4.548969 0,-4.548969c0,0 4.548983,0 4.548983,0zm0.156879,7.686172c0,0 -4.862637,0 -4.862637,0c-0.605509,0 -1.098052,0.492667 -1.098052,1.098102c0,0 0,4.862791 0,4.862791c0,0.605356 0.492543,1.098024 1.098052,1.098024c0,0 4.862637,0 4.862637,0c0.605404,0 1.098051,-0.492668 1.098051,-1.098024c0,0 0,-4.862791 0,-4.862791c0,-0.605434 -0.492647,-1.098102 -1.098051,-1.098102zm-0.156879,1.254973c0,0 0,4.549047 0,4.549047c0,0 -4.548983,0 -4.548983,0c0,0 0,-4.549047 0,-4.549047c0,0 4.548983,0 4.548983,0z"/>
 </g>
</svg>