<svg width="20" height="20" xmlns="http://www.w3.org/2000/svg">

 <g>
  <title>background</title>
  <rect fill="none" id="canvas_background" height="22" width="22" y="-1" x="-1"/>
 </g>
 <g>
  <title>Layer 1</title>
  <path id="svg_1" d="m17.504684,7.630827c-0.064461,-0.019629 -0.130177,-0.027214 -0.197454,-0.0287c0,0 -1.515388,0 -1.515388,0c0,0 0,-1.873781 0,-1.873781c0,-0.391163 -0.307396,-0.709442 -0.685409,-0.709599c0,0 -6.854296,0 -6.854296,0c0,0 0,-1.308229 0,-1.308229c0,-0.391241 -0.307396,-0.709599 -0.685409,-0.709677c0,0 -4.870146,0.000157 -4.870146,0.000157c-0.021384,-0.001017 -0.042871,-0.001017 -0.064254,0c0,0 -0.163347,0.008054 -0.163347,0.008054c0,0 0,0.02698 0,0.02698c-0.275269,0.095014 -0.467091,0.361994 -0.46584,0.674955c0,0 0,12.534338 0,12.534338c0,0 0.000313,0.065298 0.000313,0.065298c0.001565,0.030342 0.005007,0.060684 0.010327,0.090635c0,0 0.002712,0.024242 0.002712,0.024242c0.001981,0.012278 0.004276,0.024242 0.005319,0.027683c0.002086,0.012278 0.004277,0.024242 0.006989,0.036285c0,0 0.015855,0.053333 0.015855,0.053333c0,0 0.020653,0.044731 0.020653,0.044731c0.00751,0.015015 0.015542,0.029716 0.024095,0.04434c0,0 0.010848,0.022131 0.010848,0.022131c0.006467,0.01173 0.013351,0.023539 0.020444,0.035112c0,0 0.022844,0.030029 0.022844,0.030029c0.008971,0.011808 0.01815,0.022991 0.02785,0.033783c0,0 0.002817,0.003128 0.002817,0.003128c0.009492,0.012278 0.020653,0.02565 0.039324,0.046217c0.028372,0.029638 0.059351,0.056852 0.092312,0.080938c0,0 0.084073,0.048485 0.084073,0.048485c0.016481,0.007977 0.033066,0.015562 0.050068,0.022366c0,0 0.027015,0.00782 0.027015,0.00782c0.007093,0.00305 0.014082,0.005865 0.021279,0.008759c0,0 0.040263,0.011652 0.040263,0.011652c0,0 0.008658,0 0.008658,0c0.010639,0.002737 0.021487,0.005396 0.03244,0.007664c0,0 0.025451,0.003284 0.025451,0.003284c0.013977,0.002031 0.028059,0.003754 0.042036,0.005005c0,0 0.018254,0.000313 0.018254,0.000313c0.013456,0.000704 0.026599,0.000547 0.03317,0.000235c0,0 10.694816,-0.000391 10.694816,-0.000391c0.012622,0.00086 0.025556,0.001251 0.036925,0.001251c0.010222,0 0.019297,-0.000391 0.026077,-0.00086c0,0 1.65902,0 1.65902,0c0.001356,0 0.002608,0 0.003963,0c0.305936,0 0.577137,-0.212317 0.659854,-0.516832c0,0 2.040058,-7.394793 2.040058,-7.394793c0,0 0.160425,-0.575796 0.160425,-0.575796c0.106291,-0.375523 -0.10243,-0.770596 -0.465006,-0.880547zm-9.937956,-1.192335c0,0 6.854296,0 6.854296,0c0,0 0,1.164182 0,1.164182c0,0 -9.532407,0 -9.532407,0c-0.304267,0.001408 -0.57432,0.214116 -0.65662,0.516755c0,0 -0.858038,3.106937 -0.858038,3.106937c0,0 0,-6.80578 0,-6.80578c0,0 3.50736,0 3.50736,0c0,0 0,1.308385 0,1.308385c0.000105,0.391242 0.307605,0.709521 0.685409,0.709521zm8.833334,2.583302c0,0 -1.808495,6.558273 -1.808495,6.558273c0,0 -10.990739,0 -10.990739,0c0,0 1.808703,-6.558273 1.808703,-6.558273c0,0 9.492039,0 9.492039,0c0.133202,0.043402 0.276417,0.043402 0.409721,0c0,0 1.08877,0 1.08877,0z"/>
 </g>
</svg>