<svg xmlns="http://www.w3.org/2000/svg" width="20" height="16">
            <path paintOrder="stroke fill markers" fillRule="evenodd" d="M 17.502732157707214 5.630826950073242 C 17.43826973438263 5.611198425292969 17.37255561351776 5.603612899780273 17.30527687072754 5.6021270751953125 C 17.30527687072754 5.6021270751953125 15.789888381958008 5.6021270751953125 15.789888381958008 5.6021270751953125 C 15.789888381958008 5.6021270751953125 15.789888381958008 3.7283458709716797 15.789888381958008 3.7283458709716797 C 15.789888381958008 3.3371829986572266 15.482492327690125 3.0189037322998047 15.104479670524597 3.018747329711914 C 15.104479670524597 3.018747329711914 8.250183939933777 3.018747329711914 8.250183939933777 3.018747329711914 C 8.250183939933777 3.018747329711914 8.250183939933777 1.7105178833007812 8.250183939933777 1.7105178833007812 C 8.250183939933777 1.3192768096923828 7.9427878856658936 1.0009193420410156 7.564775228500366 1.0008411407470703 C 7.564775228500366 1.0008411407470703 2.6946287155151367 1.000997543334961 2.6946287155151367 1.000997543334961 C 2.6732455492019653 0.9999809265136719 2.651758074760437 0.9999809265136719 2.6303749084472656 1.000997543334961 C 2.6303749084472656 1.000997543334961 2.4670283794403076 1.0090522766113281 2.4670283794403076 1.0090522766113281 C 2.4670283794403076 1.0090522766113281 2.4670283794403076 1.036031723022461 2.4670283794403076 1.036031723022461 C 2.19175922870636 1.1310462951660156 1.999936580657959 1.3980255126953125 2.001188278198242 1.7109870910644531 C 2.001188278198242 1.7109870910644531 2.001188278198242 14.245325088500977 2.001188278198242 14.245325088500977 C 2.001188278198242 14.245325088500977 2.001501202583313 14.310623168945312 2.001501202583313 14.310623168945312 C 2.003065824508667 14.340965270996094 2.006507992744446 14.371307373046875 2.0118277072906494 14.40125846862793 C 2.0118277072906494 14.40125846862793 2.0145397186279297 14.425500869750977 2.0145397186279297 14.425500869750977 C 2.0165215730667114 14.43777847290039 2.018816351890564 14.449743270874023 2.0198594331741333 14.453184127807617 C 2.021945595741272 14.465461730957031 2.0241360664367676 14.477426528930664 2.026848077774048 14.489469528198242 C 2.026848077774048 14.489469528198242 2.0427029132843018 14.542802810668945 2.0427029132843018 14.542802810668945 C 2.0427029132843018 14.542802810668945 2.0633559226989746 14.587533950805664 2.0633559226989746 14.587533950805664 C 2.070866107940674 14.602548599243164 2.0788978338241577 14.617250442504883 2.0874511003494263 14.631874084472656 C 2.0874511003494263 14.631874084472656 2.0982991456985474 14.65400505065918 2.0982991456985474 14.65400505065918 C 2.1047662496566772 14.665735244750977 2.111650586128235 14.677543640136719 2.1187435388565063 14.689117431640625 C 2.1187435388565063 14.689117431640625 2.141587018966675 14.719146728515625 2.141587018966675 14.719146728515625 C 2.150557518005371 14.730955123901367 2.1597366333007812 14.742137908935547 2.169437289237976 14.7529296875 C 2.169437289237976 14.7529296875 2.1722536087036133 14.756057739257812 2.1722536087036133 14.756057739257812 C 2.1817456483840942 14.768335342407227 2.192906618118286 14.781707763671875 2.2115777730941772 14.802274703979492 C 2.239949584007263 14.831912994384766 2.2709290981292725 14.859127044677734 2.3038904666900635 14.88321304321289 C 2.3038904666900635 14.88321304321289 2.387962818145752 14.931697845458984 2.387962818145752 14.931697845458984 C 2.4044435024261475 14.939674377441406 2.4210284948349 14.947259902954102 2.43803071975708 14.954063415527344 C 2.43803071975708 14.954063415527344 2.465046525001526 14.961883544921875 2.465046525001526 14.961883544921875 C 2.4721394777297974 14.964933395385742 2.479128122329712 14.967748641967773 2.4863253831863403 14.97064208984375 C 2.4863253831863403 14.97064208984375 2.5265883207321167 14.982294082641602 2.5265883207321167 14.982294082641602 C 2.5265883207321167 14.982294082641602 2.535245895385742 14.982294082641602 2.535245895385742 14.982294082641602 C 2.5458853244781494 14.985031127929688 2.5567333698272705 14.987689971923828 2.5676857233047485 14.989957809448242 C 2.5676857233047485 14.989957809448242 2.5931369066238403 14.993242263793945 2.5931369066238403 14.993242263793945 C 2.6071141958236694 14.995275497436523 2.6211957931518555 14.99699592590332 2.6351730823516846 14.998247146606445 C 2.6351730823516846 14.998247146606445 2.653427004814148 14.998559951782227 2.653427004814148 14.998559951782227 C 2.6668827533721924 14.999263763427734 2.680025577545166 14.999107360839844 2.686596989631653 14.998794555664062 C 2.686596989631653 14.998794555664062 13.381413698196411 14.998403549194336 13.381413698196411 14.998403549194336 C 13.3940349817276 14.999263763427734 13.40696918964386 14.999654769897461 13.418338775634766 14.999654769897461 C 13.428560972213745 14.999654769897461 13.437635779380798 14.999263763427734 13.444415807723999 14.998794555664062 C 13.444415807723999 14.998794555664062 15.103436589241028 14.998794555664062 15.103436589241028 14.998794555664062 C 15.104792594909668 14.998794555664062 15.106044292449951 14.998794555664062 15.107400298118591 14.998794555664062 C 15.413336038589478 14.998794555664062 15.684537172317505 14.786478042602539 15.767253518104553 14.481962203979492 C 15.767253518104553 14.481962203979492 17.80731189250946 7.087169647216797 17.80731189250946 7.087169647216797 C 17.80731189250946 7.087169647216797 17.967737793922424 6.511373519897461 17.967737793922424 6.511373519897461 C 18.07402777671814 6.13585090637207 17.865307211875916 5.740777969360352 17.502732157707214 5.630826950073242 Z M 7.564775228500366 4.4384918212890625 C 7.564775228500366 4.4384918212890625 14.419070959091187 4.4384918212890625 14.419070959091187 4.4384918212890625 C 14.419070959091187 4.4384918212890625 14.419070959091187 5.60267448425293 14.419070959091187 5.60267448425293 C 14.419070959091187 5.60267448425293 4.886664032936096 5.60267448425293 4.886664032936096 5.60267448425293 C 4.582397222518921 5.604082107543945 4.31234347820282 5.816789627075195 4.230044364929199 6.119428634643555 C 4.230044364929199 6.119428634643555 3.3720057010650635 9.22636604309082 3.3720057010650635 9.22636604309082 C 3.3720057010650635 9.22636604309082 3.3720057010650635 2.4205856323242188 3.3720057010650635 2.4205856323242188 C 3.3720057010650635 2.4205856323242188 6.879366517066956 2.4205856323242188 6.879366517066956 2.4205856323242188 C 6.879366517066956 2.4205856323242188 6.879366517066956 3.728971481323242 6.879366517066956 3.728971481323242 C 6.8794708251953125 4.120212554931641 7.186971187591553 4.4384918212890625 7.564775228500366 4.4384918212890625 Z M 16.398109078407288 7.021793365478516 C 16.398109078407288 7.021793365478516 14.589614748954773 13.580066680908203 14.589614748954773 13.580066680908203 C 14.589614748954773 13.580066680908203 3.598875880241394 13.580066680908203 3.598875880241394 13.580066680908203 C 3.598875880241394 13.580066680908203 5.407578825950623 7.021793365478516 5.407578825950623 7.021793365478516 C 5.407578825950623 7.021793365478516 14.89961850643158 7.021793365478516 14.89961850643158 7.021793365478516 C 15.032819986343384 7.065195083618164 15.176035046577454 7.065195083618164 15.309340834617615 7.021793365478516 C 15.309340834617615 7.021793365478516 16.398109078407288 7.021793365478516 16.398109078407288 7.021793365478516 Z"/>
        </svg>