<svg width="20" height="20" xmlns="http://www.w3.org/2000/svg">

 <g>
  <title>background</title>
  <rect fill="none" id="canvas_background" height="22" width="22" y="-1" x="-1"/>
 </g>
 <g>
  <title>Layer 1</title>
  <path id="svg_1" d="m9.819216,1.99991c-2.214041,0 -4.036409,1.90224 -4.036409,4.21333c0,0.69333 0.56212,1.28007 1.24325,1.28007c0.698339,0 1.243349,-0.58674 1.243349,-1.28007c0,-0.88892 0.69824,-1.61775 1.54981,-1.61775c0.83457,0 1.51581,0.72883 1.51581,1.61775c0,0.81775 -0.340569,1.22666 -0.970798,1.97333c-0.783461,0.83558 -1.822371,1.991159 -1.822371,4.19557c0,0.74667 0.56212,1.31559 1.260359,1.31559c0.68124,0 1.22625,-0.56892 1.22625,-1.31559c0,-1.19116 0.476891,-1.72441 1.124121,-2.4355c0.732351,-0.83558 1.634932,-1.84899 1.634932,-3.75116c0.034109,-2.29333 -1.754251,-4.19557 -3.968302,-4.19557c0,0 0,0 0,0zm0,12.87107c-0.83457,0 -1.515799,0.67558 -1.515799,1.56449c0,0.87109 0.681229,1.564419 1.515799,1.564419c0.80057,0 1.49881,-0.693329 1.49881,-1.564419c0,-0.87108 -0.681349,-1.56449 -1.49881,-1.56449z"/>
 </g>
</svg>