<svg width="20" height="20" xmlns="http://www.w3.org/2000/svg">

 <g>
  <title>background</title>
  <rect fill="none" id="canvas_background" height="22" width="22" y="-1" x="-1"/>
 </g>
 <g>
  <title>Layer 1</title>
  <g id="svg_1">
   <path id="svg_2" d="m9.696729,12.965786c0.438303,0 0.794724,0.348074 0.794724,0.776226c0,0 0,0.817673 0,0.817673c0,0.213881 0.178262,0.387957 0.397413,0.387957c0,0 5.125807,0 5.125807,0c0.219151,0 0.397413,-0.174076 0.397413,-0.387957c0,0 0,-9.119444 0,-9.119444c0,-0.214037 -0.178263,-0.388113 -0.397413,-0.388113c0,0 -5.125807,0 -5.125807,0c-0.219151,0 -0.397413,0.174076 -0.397413,0.388113c0,0 0,1.01169 0,1.01169c0,0.427917 -0.356421,0.776148 -0.794724,0.776148c0,0 -0.001877,0 -0.001877,0c-0.438303,0 -0.794724,-0.348231 -0.794724,-0.776148c0,0 0,-1.01169 0,-1.01169c0,-1.06995 0.891105,-1.940331 1.986757,-1.940331c0,0 5.127789,0 5.127789,0c1.095547,0 1.986755,0.870381 1.986755,1.940331c0,0 0,9.119444 0,9.119444c0,1.069794 -0.891209,1.940252 -1.986755,1.940252c0,0 -5.125807,0 -5.125807,0c-1.095548,0 -1.986861,-0.870459 -1.986861,-1.940252c0,0 0,-0.817673 0,-0.817673c0,-0.428152 0.356525,-0.776226 0.794724,-0.776226zm-7.462412,-3.420212c0,0 3.245652,-3.130476 3.245652,-3.130476c0.322207,-0.289892 0.82612,-0.269325 1.122981,0.045592c0.281528,0.298885 0.277981,0.764183 -0.012413,1.063615c0,0 -1.865446,1.802306 -1.865446,1.802306c0,0 8.645162,0 8.645162,0c0.433922,0 0.790447,0.344711 0.794724,0.768328c0,0 0,0.001955 0,0.001955c0,0.427917 -0.356525,0.776148 -0.794724,0.776148c0,0 -8.645162,0 -8.645162,0c0,0 1.869932,1.806919 1.869932,1.806919c0.146135,0.150459 0.223219,0.347527 0.217482,0.554838c-0.005841,0.207077 -0.094086,0.399843 -0.248149,0.542091c-0.151768,0.140606 -0.347763,0.2113 -0.544384,0.2113c-0.194848,0 -0.390425,-0.069208 -0.545219,-0.208485c0,0 -3.240436,-3.129538 -3.240436,-3.129538c-0.311568,-0.300762 -0.314906,-0.793118 0,-1.104593z" fill-rule="evenodd" fill="rgb(255,58,76)"/>
  </g>
 </g>
</svg>