
<svg xmlns="http://www.w3.org/2000/svg" width="12" height="19">
    <path d="M 6.034061551094055 1.9999065399169922 C 3.8200172185897827 1.9999065399169922 1.997649908065796 3.9021530151367188 1.997649908065796 6.213235855102539 C 1.997649908065796 6.90656852722168 2.559766411781311 7.493312835693359 3.2408984899520874 7.493312835693359 C 3.939241409301758 7.493312835693359 4.484251379966736 6.90656852722168 4.484251379966736 6.213235855102539 C 4.484251379966736 5.324321746826172 5.182489991188049 4.595485687255859 6.034061551094055 4.595485687255859 C 6.868630886077881 4.595485687255859 7.549867272377014 5.324321746826172 7.549867272377014 6.213235855102539 C 7.549867272377014 7.030986785888672 7.209301233291626 7.439901351928711 6.579071521759033 8.186567306518555 C 5.795613169670105 9.022148132324219 4.756704211235046 10.177728652954102 4.756704211235046 12.382144927978516 C 4.756704211235046 13.12881088256836 5.3188207149505615 13.697725296020508 6.017059326171875 13.697725296020508 C 6.698295712471008 13.697725296020508 7.243305683135986 13.12881088256836 7.243305683135986 12.382144927978516 C 7.243305683135986 11.190982818603516 7.720202445983887 10.65772819519043 8.36743438243866 9.946643829345703 C 9.09978175163269 9.111063003540039 10.002359986305237 8.097652435302734 10.002359986305237 6.195484161376953 C 10.036468744277954 3.9021530151367188 8.248105883598328 1.9999065399169922 6.034061551094055 1.9999065399169922 C 6.034061551094055 1.9999065399169922 6.034061551094055 1.9999065399169922 6.034061551094055 1.9999065399169922 Z M 6.034061551094055 14.870979309082031 C 5.1994922161102295 14.870979309082031 4.518255829811096 15.546560287475586 4.518255829811096 16.435474395751953 C 4.518255829811096 17.30655860900879 5.1994922161102295 17.99989128112793 6.034061551094055 17.99989128112793 C 6.8346264362335205 17.99989128112793 7.532865047454834 17.30655860900879 7.532865047454834 16.435474395751953 C 7.532865047454834 15.564390182495117 6.851524353027344 14.870979309082031 6.034061551094055 14.870979309082031 Z"/>
</svg>
