<svg width="20" height="20" xmlns="http://www.w3.org/2000/svg">
 <g>
  <title>background</title>
  <rect x="-1" y="-1" width="22" height="22" id="canvas_background" fill="none"/>
 </g>

 <g>
  <title>Layer 1</title>
  <g id="svg_1">
   <path fill="#fc1b1b" fill-rule="evenodd" d="m9.69673,12.96579c0.4383,0 0.794721,0.34807 0.794721,0.77622c0,0 0,0.81767 0,0.81767c0,0.21389 0.17826,0.38796 0.39742,0.38796c0,0 5.125799,0 5.125799,0c0.219151,0 0.397421,-0.17407 0.397421,-0.38796c0,0 0,-9.11944 0,-9.11944c0,-0.21404 -0.17827,-0.38811 -0.397421,-0.38811c0,0 -5.125799,0 -5.125799,0c-0.21916,0 -0.39742,0.17407 -0.39742,0.38811c0,0 0,1.01169 0,1.01169c0,0.42792 -0.356421,0.77615 -0.794721,0.77615c0,0 -0.00188,0 -0.00188,0c-0.4383,0 -0.79472,-0.34823 -0.79472,-0.77615c0,0 0,-1.01169 0,-1.01169c0,-1.06995 0.8911,-1.94033 1.98675,-1.94033c0,0 5.127789,0 5.127789,0c1.095551,0 1.986761,0.87038 1.986761,1.94033c0,0 0,9.11944 0,9.11944c0,1.0698 -0.891211,1.940261 -1.986761,1.940261c0,0 -5.125799,0 -5.125799,0c-1.095551,0 -1.98686,-0.870461 -1.98686,-1.940261c0,0 0,-0.81767 0,-0.81767c0,-0.42815 0.35652,-0.77622 0.79472,-0.77622zm-7.46241,-3.420219c0,0 3.24565,-3.13047 3.24565,-3.13047c0.32221,-0.28989 0.82612,-0.26933 1.12298,0.04559c0.28153,0.29888 0.27798,0.76418 -0.01241,1.06361c0,0 -1.86545,1.80231 -1.86545,1.80231c0,0 8.64516,0 8.64516,0c0.43392,0 0.79045,0.34471 0.79473,0.768331c0,0 0,0.00195 0,0.00195c0,0.427919 -0.35653,0.77615 -0.79473,0.77615c0,0 -8.64516,0 -8.64516,0c0,0 1.86993,1.80692 1.86993,1.80692c0.14614,0.150459 0.22322,0.347529 0.21748,0.55484c-0.00584,0.20708 -0.09408,0.399839 -0.24814,0.542089c-0.15177,0.14061 -0.34777,0.2113 -0.54439,0.2113c-0.19485,0 -0.39042,-0.06921 -0.54522,-0.208489c0,0 -3.24043,-3.12953 -3.24043,-3.12953c-0.31157,-0.300771 -0.31491,-0.79312 0,-1.1046z" id="svg_2"/>
  </g>
 </g>
</svg>