<svg width="20" height="20" xmlns="http://www.w3.org/2000/svg">

 <g>
  <title>background</title>
  <rect fill="none" id="canvas_background" height="22" width="22" y="-1" x="-1"/>
 </g>
 <g>
  <title>Layer 1</title>
  <g id="svg_1">
   <path id="svg_2" d="m16.949926,3.496634c0,0 -13.900102,0 -13.900102,0c-1.127154,0 -2.044127,0.873821 -2.044127,1.947916c0,0 0,9.110529 0,9.110529c0,1.074017 0.916973,1.947916 2.044127,1.947916c0,0 13.900102,0 13.900102,0c1.127048,0 2.044022,-0.873899 2.044022,-1.947916c0,0 0,-9.110529 0,-9.110529c0,-1.074095 -0.916973,-1.947916 -2.044022,-1.947916zm-14.30899,2.632412c0,0 6.175563,5.688988 6.175563,5.688988c0.663504,0.612082 1.703143,0.611691 2.366647,0c0,0 6.175563,-5.688988 6.175563,-5.688988c0,0 0,8.426033 0,8.426033c0,0.225845 -0.1719,0.389599 -0.408783,0.389599c0,0 -13.900102,0 -13.900102,0c-0.236884,0 -0.408888,-0.163754 -0.408888,-0.389599c0,0 0,-8.426033 0,-8.426033zm7.419437,4.552958c-0.031396,0.006882 -0.089705,0.006882 -0.121101,0c0,0 -6.109222,-5.626974 -6.109222,-5.626974c0,0 12.339443,0 12.339443,0c0,0 -6.109119,5.626974 -6.109119,5.626974z" fill-rule="evenodd"/>
  </g>
 </g>
</svg>