<svg width="20" height="20" xmlns="http://www.w3.org/2000/svg">

 <g>
  <title>background</title>
  <rect fill="none" id="canvas_background" height="22" width="22" y="-1" x="-1"/>
 </g>
 <g>
  <title>Layer 1</title>
  <g id="svg_1">
   <path id="svg_2" d="m7.078347,15.946329c0,0 1.537919,0 1.537919,0c0,0.798904 0.619695,1.446489 1.384065,1.446489c0.764474,0 1.384169,-0.647585 1.384169,-1.446489c0,0 1.537919,0 1.537919,0c0,1.686489 -1.308232,3.053604 -2.922088,3.053604c-1.613751,0 -2.921984,-1.367115 -2.921984,-3.053604zm11.072934,-2.250555c0,0 0,0.32258 0,0.32258c0,0.800938 -0.619799,1.445864 -1.384481,1.445864c0,0 -13.532728,0 -13.532728,0c-0.764787,0 -1.38469,-0.646959 -1.38469,-1.445864c0,0 0,-0.32258 0,-0.32258c0,-1.165199 0.792741,-2.137163 1.845523,-2.361366c0,0 0,-3.745451 0,-3.745451c0,-3.639958 2.822682,-6.589007 6.305427,-6.589007c3.482953,0 6.305532,2.949753 6.305532,6.589007c0,0 0,3.745216 0,3.745216c1.054138,0.223891 1.845419,1.195307 1.845419,2.361601zm-1.537815,0c0,-0.444183 -0.3438,-0.802971 -0.77188,-0.802971c-0.593409,0 -1.073644,-0.50565 -1.073644,-1.122658c0,0 0,-4.181189 0,-4.181189c0,-2.751669 -2.134144,-4.981892 -4.767612,-4.981892c-2.633468,0 -4.767508,2.229675 -4.767508,4.981892c0,0 0,4.181189 0,4.181189c0,0.619745 -0.482738,1.122658 -1.073748,1.122658c-0.426411,0 -0.771671,0.360117 -0.771671,0.802971c0,0 0,0.161329 0,0.161329c0,0 13.226062,0 13.226062,0c0,0 0,-0.161329 0,-0.161329z" fill-rule="evenodd"/>
  </g>
 </g>
</svg>