<svg width="20" height="20" xmlns="http://www.w3.org/2000/svg">

 <g>
  <title>background</title>
  <rect fill="none" id="canvas_background" height="402" width="582" y="-1" x="-1"/>
 </g>
 <g>
  <title>Layer 1</title>
  <g id="svg_1">
   <path id="svg_2" d="m13.760563,12.563161c0,0 4.160009,4.125901 4.160009,4.125901c0.323671,0.32094 0.324612,0.840279 -0.002708,1.165049c-0.32513,0.3225 -0.856991,0.31773 -1.174721,0.002661c0,0 -4.15981,-4.125751 -4.15981,-4.125751c-2.61291,2.016741 -6.39231,1.834141 -8.79401,-0.547879c-2.60092,-2.57962 -2.60092,-6.762061 0,-9.34177c2.60103,-2.57962 6.817999,-2.57962 9.41903,0c2.40159,2.38194 2.5858,6.13036 0.55221,8.72179c0,0 0,0 0,0zm-1.72964,-0.54772c1.950871,-1.9347 1.950871,-5.07151 0,-7.006289c-1.950669,-1.93477 -5.1135,-1.93477 -7.06416,0c-1.95088,1.93478 -1.95088,5.071589 0,7.006289c1.95066,1.93478 5.113491,1.93478 7.06416,0z" fill-rule="evenodd"/>
  </g>
 </g>
</svg>