<svg width="20" height="20" xmlns="http://www.w3.org/2000/svg">

 <g>
  <title>background</title>
  <rect fill="none" id="canvas_background" height="22" width="22" y="-1" x="-1"/>
 </g>
 <g>
  <title>Layer 1</title>
  <path id="svg_1" d="m17.172398,16.365057c0,0 -13.542015,0 -13.542015,0c0,0 0,-13.547596 0,-13.547596c0,-0.450126 -0.365809,-0.81603 -0.815794,-0.81603c-0.449881,0 -0.81569,0.365904 -0.81569,0.81603c0,0 0,14.363626 0,14.363626c0,0.450205 0.365809,0.816109 0.81569,0.816109c0,0 14.357809,0 14.357809,0c0.45009,0 0.815794,-0.365904 0.815794,-0.816109c0,-0.450048 -0.365704,-0.816031 -0.815794,-0.816031zm-9.857226,-5.152605c0,0 2.678322,-2.658066 2.678322,-2.658066c0,0 2.6609,2.635153 2.6609,2.635153c0.140818,0.168915 0.35058,0.262678 0.554502,0.262678c0.056013,0 0.111506,-0.007116 0.165642,-0.021662c0.170856,-0.020489 0.333368,-0.097282 0.447378,-0.206373c0,0 3.746225,-2.99308 3.746225,-2.99308c0.390114,-0.256266 0.536041,-0.750731 0.349224,-1.174662c-0.015751,-0.039882 -0.035673,-0.078826 -0.057264,-0.113861c-0.106394,-0.174076 -0.273392,-0.296148 -0.471056,-0.343929c-0.197454,-0.047546 -0.402109,-0.016266 -0.593306,0.1026c0,0 -3.495783,2.824869 -3.495783,2.824869c0,0 -2.722651,-2.701076 -2.722651,-2.701076c-0.328154,-0.319843 -0.840618,-0.320156 -1.168875,0.00086c0,0 -3.256713,3.232219 -3.256713,3.232219c-0.154272,0.154291 -0.239074,0.358944 -0.239074,0.576969c0,0.218103 0.084802,0.422834 0.2397,0.577751c0.320226,0.31554 0.840932,0.316872 1.162827,-0.000391z"/>
 </g>
</svg>